<?xml version="1.0" standalone="no"?>
<!DOCTYPE svg PUBLIC "-//W3C//DTD SVG 1.1//EN" "http://www.w3.org/Graphics/SVG/1.1/DTD/svg11.dtd" >
<svg xmlns="http://www.w3.org/2000/svg">
<metadata>Generated by IcoMoon</metadata>
<defs>
<font id="spicons" horiz-adv-x="1024">
<font-face units-per-em="1024" ascent="960" descent="-64" />
<missing-glyph horiz-adv-x="1024" />
<glyph unicode="&#x20;" horiz-adv-x="512" d="" />
<glyph unicode="&#xe900;" glyph-name="alert-circled" d="M544-64c-265.097 0-480 214.903-480 480s214.903 480 480 480c265.097 0 480-214.903 480-480s-214.903-480-480-480zM544 0c229.75 0 416 186.25 416 416s-186.25 416-416 416c-229.75 0-416-186.25-416-416s186.25-416 416-416zM512 256h64v-64h-64v64zM512 640h64v-320h-64v320z" />
<glyph unicode="&#xe901;" glyph-name="alert-filled" d="M544-64c-265.097 0-480 214.903-480 480s214.903 480 480 480c265.097 0 480-214.903 480-480s-214.903-480-480-480zM512 256v-64h64v64h-64zM512 640v-320h64v320h-64z" />
<glyph unicode="&#xe902;" glyph-name="align-center" d="M96 768h832c17.673 0 32-14.327 32-32v0c0-17.673-14.327-32-32-32h-832c-17.673 0-32 14.327-32 32v0 0c0 17.673 14.327 32 32 32v0zM288 576h448c17.673 0 32-14.327 32-32s-14.327-32-32-32h-448c-17.673 0-32 14.327-32 32s14.327 32 32 32zM288 192h448c17.673 0 32-14.327 32-32s-14.327-32-32-32h-448c-17.673 0-32 14.327-32 32s14.327 32 32 32zM96 384h832c17.673 0 32-14.327 32-32s-14.327-32-32-32h-832c-17.673 0-32 14.327-32 32s14.327 32 32 32v0z" />
<glyph unicode="&#xe903;" glyph-name="align-justify" d="M96 768h832c17.673 0 32-14.327 32-32v0c0-17.673-14.327-32-32-32h-832c-17.673 0-32 14.327-32 32v0 0c0 17.673 14.327 32 32 32v0zM96 576h832c17.673 0 32-14.327 32-32s-14.327-32-32-32h-832c-17.673 0-32 14.327-32 32s14.327 32 32 32v0zM96 192h832c17.673 0 32-14.327 32-32s-14.327-32-32-32h-832c-17.673 0-32 14.327-32 32s14.327 32 32 32v0zM96 384h832c17.673 0 32-14.327 32-32s-14.327-32-32-32h-832c-17.673 0-32 14.327-32 32s14.327 32 32 32v0z" />
<glyph unicode="&#xe904;" glyph-name="align-left" d="M96 768h832c17.673 0 32-14.327 32-32v0c0-17.673-14.327-32-32-32h-832c-17.673 0-32 14.327-32 32v0 0c0 17.673 14.327 32 32 32v0zM96 576h640c17.673 0 32-14.327 32-32s-14.327-32-32-32h-640c-17.673 0-32 14.327-32 32s14.327 32 32 32v0zM96 192h448c17.673 0 32-14.327 32-32s-14.327-32-32-32h-448c-17.673 0-32 14.327-32 32s14.327 32 32 32v0zM96 384h832c17.673 0 32-14.327 32-32s-14.327-32-32-32h-832c-17.673 0-32 14.327-32 32s14.327 32 32 32v0z" />
<glyph unicode="&#xe905;" glyph-name="align-right" d="M96 768h832c17.673 0 32-14.327 32-32v0c0-17.673-14.327-32-32-32h-832c-17.673 0-32 14.327-32 32v0 0c0 17.673 14.327 32 32 32v0zM288 576h640c17.673 0 32-14.327 32-32s-14.327-32-32-32h-640c-17.673 0-32 14.327-32 32s14.327 32 32 32zM480 192h448c17.673 0 32-14.327 32-32s-14.327-32-32-32h-448c-17.673 0-32 14.327-32 32s14.327 32 32 32zM96 384h832c17.673 0 32-14.327 32-32s-14.327-32-32-32h-832c-17.673 0-32 14.327-32 32s14.327 32 32 32v0z" />
<glyph unicode="&#xe906;" glyph-name="arrow-down" d="M197.8 590.6l3.6-4.2 272-313c9.2-10.6 23-17.2 38.4-17.2s29.2 6.8 38.4 17.2l276.4 317.6c3.4 5 5.4 11 5.4 17.4 0 17.4-14.8 31.6-33.2 31.6v0h-573.6c-18.4 0-33.2-14.2-33.2-31.6 0-6.6 2.2-12.8 5.8-17.8z" />
<glyph unicode="&#xe907;" glyph-name="arrow-down-circled" d="M544-64c-265.097 0-480 214.903-480 480s214.903 480 480 480c265.097 0 480-214.903 480-480s-214.903-480-480-480zM544 0c229.75 0 416 186.25 416 416s-186.25 416-416 416c-229.75 0-416-186.25-416-416s186.25-416 416-416zM374.627 502.627l169.373-169.373 169.373 169.373 45.255-45.255-214.627-214.627-214.627 214.627 45.255 45.255z" />
<glyph unicode="&#xe908;" glyph-name="arrow-left" d="M654.6 762.2l-4.2-3.6-313-272c-10.6-9.2-17.2-23-17.2-38.4s6.8-29.2 17.2-38.4l317.6-276.4c5-3.4 11-5.4 17.4-5.4 17.4 0 31.6 14.8 31.6 33.2v0 573.6c0 18.4-14.2 33.2-31.6 33.2-6.6 0-12.8-2.2-17.8-5.8z" />
<glyph unicode="&#xe909;" glyph-name="arrow-left-circled" d="M544-64c-265.097 0-480 214.903-480 480s214.903 480 480 480c265.097 0 480-214.903 480-480s-214.903-480-480-480zM544 0c229.75 0 416 186.25 416 416s-186.25 416-416 416c-229.75 0-416-186.25-416-416s186.25-416 416-416zM630.627 585.373l-169.373-169.373 169.373-169.373-45.255-45.255-214.627 214.627 214.627 214.627 45.255-45.255z" />
<glyph unicode="&#xe90a;" glyph-name="arrow-right" d="M369.4 133.8l4.2 3.6 313 272c10.6 9.2 17.2 23 17.2 38.4s-6.8 29.2-17.2 38.4l-317.6 276.4c-5 3.4-11 5.4-17.4 5.4-17.4 0-31.6-14.8-31.6-33.2v0-573.6c0-18.4 14.2-33.2 31.6-33.2 6.6 0 12.8 2.2 17.8 5.8z" />
<glyph unicode="&#xe90b;" glyph-name="arrow-right-circled" d="M544-64c-265.097 0-480 214.903-480 480s214.903 480 480 480c265.097 0 480-214.903 480-480s-214.903-480-480-480zM544 0c229.75 0 416 186.25 416 416s-186.25 416-416 416c-229.75 0-416-186.25-416-416s186.25-416 416-416zM457.373 246.627l169.373 169.373-169.373 169.373 45.255 45.255 214.627-214.627-214.627-214.627-45.255 45.255z" />
<glyph unicode="&#xe90c;" glyph-name="arrow-up" d="M826.2 305.4l-3.6 4.2-272 313c-9.2 10.6-23 17.2-38.4 17.2s-29.2-6.8-38.4-17.2l-276.4-317.6c-3.4-5-5.4-11-5.4-17.4 0-17.4 14.8-31.6 33.2-31.6v0h573.6c18.4 0 33.2 14.2 33.2 31.6 0 6.6-2.2 12.8-5.8 17.8z" />
<glyph unicode="&#xe90d;" glyph-name="arrow-up-circled" d="M544-64c-265.097 0-480 214.903-480 480s214.903 480 480 480c265.097 0 480-214.903 480-480s-214.903-480-480-480zM544 0c229.75 0 416 186.25 416 416s-186.25 416-416 416c-229.75 0-416-186.25-416-416s186.25-416 416-416zM713.373 265.373l-169.373 169.373-169.373-169.373-45.255 45.255 214.627 214.627 214.627-214.627-45.255-45.255z" />
<glyph unicode="&#xe90e;" glyph-name="bell" d="M896 192h96c17.673 0 32-14.327 32-32s-14.327-32-32-32h-960c-17.673 0-32 14.327-32 32s14.327 32 32 32v0h96v384c0 212.077 171.923 384 384 384s384-171.923 384-384v-384zM192 192h640v384c0 176.731-143.269 320-320 320s-320-143.269-320-320v-384zM512-64c-70.692 0-128 57.308-128 128 64 0 192 0 256 0 0-70.692-57.308-128-128-128z" />
<glyph unicode="&#xe90f;" glyph-name="book" d="M192 192h576c35.346 0 64 28.654 64 64v576c0 35.346-28.654 64-64 64h-512c-35.346 0-64-28.654-64-64v-640zM852.666 160c26.573-23.454 43.334-57.77 43.334-96 0-70.692-57.308-128-128-128h-512c-70.692 0-128 57.308-128 128v768c0 70.692 57.308 128 128 128h512c70.692 0 128-57.308 128-128v-576c0-38.23-16.76-72.546-43.334-96zM192 128v-64c0-35.346 28.654-64 64-64h512c35.346 0 64 28.654 64 64s-28.654 64-64 64h-576z" />
<glyph unicode="&#xe910;" glyph-name="bookmark" d="M192 896v-891.446l225.52 246.735c2.585 2.828 5.296 5.539 8.124 8.124 52.18 47.693 133.143 44.056 180.837-8.124l225.52-246.735v891.446h-640zM192 960h640c35.346 0 64-28.654 64-64v-891.446c0-35.346-28.654-64-64-64-17.972 0-35.115 7.556-47.24 20.822l-225.52 246.735c-23.847 26.090-64.328 27.909-90.418 4.062-1.414-1.292-2.769-2.648-4.062-4.062l-225.52-246.735c-23.847-26.090-64.328-27.909-90.418-4.062-13.265 12.125-20.822 29.268-20.822 47.24v891.446c0 35.346 28.654 64 64 64z" />
<glyph unicode="&#xe911;" glyph-name="briefcase" d="M256 640v128c0 70.692 57.308 128 128 128h256c70.692 0 128-57.308 128-128v-128h128c70.692 0 128-57.308 128-128v-384c0-70.692-57.308-128-128-128h-768c-70.692 0-128 57.308-128 128v384c0 70.692 57.308 128 128 128h128zM256 576h-128c-35.346 0-64-28.654-64-64v-384c0-35.346 28.654-64 64-64h128v512zM768 576v-512h128c35.346 0 64 28.654 64 64v384c0 35.346-28.654 64-64 64h-128zM320 64h384v512h-384v-512zM320 640h384v176c0 8.837-28.654 16-64 16h-256c-35.346 0-64-7.163-64-16v-176z" />
<glyph unicode="&#xe912;" glyph-name="calendar" d="M768 896h128c70.692 0 128-57.308 128-128v-704c0-70.692-57.308-128-128-128h-768c-70.692 0-128 57.308-128 128v704c0 70.692 57.308 128 128 128h128v32c0 17.673 14.327 32 32 32s32-14.327 32-32v-32h384v32c0 17.673 14.327 32 32 32s32-14.327 32-32v-32zM768 832v-32c0-17.673-14.327-32-32-32s-32 14.327-32 32v32h-384v-32c0-17.673-14.327-32-32-32s-32 14.327-32 32v32h-128c-35.346 0-64-28.654-64-64v-64h896v64c0 35.346-28.654 64-64 64h-128zM960 640h-896v-576c0-35.346 28.654-64 64-64h768c35.346 0 64 28.654 64 64v576z" />
<glyph unicode="&#xe913;" glyph-name="camera" d="M320 768c0 70.692 57.308 128 128 128h128c70.692 0 128-57.308 128-128h192c70.692 0 128-57.308 128-128v-512c0-70.692-57.308-128-128-128h-768c-70.692 0-128 57.308-128 128v512c0 70.692 57.308 128 128 128h192zM128 704c-35.346 0-64-28.654-64-64v-512c0-35.346 28.654-64 64-64h768c35.346 0 64 28.654 64 64v512c0 35.346-28.654 64-64 64h-768zM384 768h256c0 35.346-28.654 64-64 64h-128c-35.346 0-64-28.654-64-64zM512 128c-141.385 0-256 114.615-256 256s114.615 256 256 256c141.385 0 256-114.615 256-256s-114.615-256-256-256zM512 192c106.039 0 192 85.961 192 192s-85.961 192-192 192c-106.039 0-192-85.961-192-192s85.961-192 192-192z" />
<glyph unicode="&#xe914;" glyph-name="checkmark" d="M118.656 438.656l-45.312-45.312 278.656-278.592 598.656 598.592-45.312 45.312-553.344-553.408z" />
<glyph unicode="&#xe915;" glyph-name="checkmark-circled" d="M544-64c-265.097 0-480 214.903-480 480s214.903 480 480 480c265.097 0 480-214.903 480-480s-214.903-480-480-480zM544 0c229.75 0 416 186.25 416 416s-186.25 416-416 416c-229.75 0-416-186.25-416-416s186.25-416 416-416zM341.407 455.785l137.434-123.69 266.532 266.532 45.255-45.255-309.468-309.468-182.566 164.31 42.814 47.571z" />
<glyph unicode="&#xe916;" glyph-name="checkmark-filled" d="M544-64c-265.097 0-480 214.903-480 480s214.903 480 480 480c265.097 0 480-214.903 480-480s-214.903-480-480-480zM341.407 455.785l-42.814-47.571 182.566-164.31 309.468 309.468-45.255 45.255-266.532-266.532-137.434 123.69z" />
<glyph unicode="&#xe917;" glyph-name="chevron-down" d="M182.656 694.656l-45.312-45.312 374.656-374.592 374.656 374.592-45.312 45.312-329.344-329.408z" />
<glyph unicode="&#xe918;" glyph-name="chevron-left" d="M694.656 777.344l-45.312 45.312-374.592-374.656 374.592-374.656 45.312 45.312-329.408 329.344z" />
<glyph unicode="&#xe919;" glyph-name="chevron-right" d="M658.752 448l-329.408-329.344 45.312-45.312 374.592 374.656-374.592 374.656-45.312-45.312z" />
<glyph unicode="&#xe91a;" glyph-name="chevron-up" d="M841.344 265.344l45.312 45.312-374.656 374.592-374.656-374.592 45.312-45.312 329.344 329.408z" />
<glyph unicode="&#xe91b;" glyph-name="clipboard" d="M320 832v32c0 53.019 42.981 96 96 96h192c53.019 0 96-42.981 96-96v-32h64c70.692 0 128-57.308 128-128v-640c0-70.692-57.308-128-128-128h-512c-70.692 0-128 57.308-128 128v640c0 70.692 57.308 128 128 128h64zM325.463 768h-69.463c-35.346 0-64-28.654-64-64v-640c0-35.346 28.654-64 64-64h512c35.346 0 64 28.654 64 64v640c0 35.346-28.654 64-64 64h-69.463c-13.179-37.286-48.738-64-90.537-64h-192c-41.799 0-77.359 26.714-90.537 64zM416 896c-17.673 0-32-14.327-32-32v-64c0-17.673 14.327-32 32-32h192c17.673 0 32 14.327 32 32v64c0 17.673-14.327 32-32 32h-192z" />
<glyph unicode="&#xe91c;" glyph-name="clock" d="M544-64c-265.097 0-480 214.903-480 480s214.903 480 480 480c265.097 0 480-214.903 480-480s-214.903-480-480-480zM544 0c229.75 0 416 186.25 416 416s-186.25 416-416 416c-229.75 0-416-186.25-416-416s186.25-416 416-416zM576 736v-288h160v-64h-224v352h64z" />
<glyph unicode="&#xe91d;" glyph-name="close" d="M512 493.255l-329.373 329.373-45.255-45.255 329.373-329.373-329.373-329.373 45.255-45.255 329.373 329.373 329.373-329.373 45.255 45.255-329.373 329.373 329.373 329.373-45.255 45.255-329.373-329.373z" />
<glyph unicode="&#xe91e;" glyph-name="close-circled" d="M544 461.255l169.373 169.373 45.255-45.255-169.373-169.373 169.373-169.373-45.255-45.255-169.373 169.373-169.373-169.373-45.255 45.255 169.373 169.373-169.373 169.373 45.255 45.255 169.373-169.373zM544-64c-265.097 0-480 214.903-480 480s214.903 480 480 480c265.097 0 480-214.903 480-480s-214.903-480-480-480zM544 0c229.75 0 416 186.25 416 416s-186.25 416-416 416c-229.75 0-416-186.25-416-416s186.25-416 416-416z" />
<glyph unicode="&#xe91f;" glyph-name="close-filled" d="M544 461.255l-169.373 169.373-45.255-45.255 169.373-169.373-169.373-169.373 45.255-45.255 169.373 169.373 169.373-169.373 45.255 45.255-169.373 169.373 169.373 169.373-45.255 45.255-169.373-169.373zM544-64c-265.097 0-480 214.903-480 480s214.903 480 480 480c265.097 0 480-214.903 480-480s-214.903-480-480-480z" />
<glyph unicode="&#xe920;" glyph-name="cloud-download" d="M512 109.255v370.745c0 17.673 14.327 32 32 32s32-14.327 32-32v-370.745l137.373 137.373 45.255-45.255-192-192c-5.791-5.791-13.791-9.373-22.627-9.373s-16.837 3.582-22.627 9.373l-192 192 45.255 45.255 137.373-137.373zM943.542 320h-47.542v-23.771 66.736c40.026 49.463 64 112.449 64 181.035 0 159.058-128.942 288-288 288-115.136 0-217.784-68.163-263.552-171.66l-24.855-56.204-57.166 22.555c-22.193 8.756-45.942 13.309-70.427 13.309-106.039 0-192-85.961-192-192 0-83.598 53.428-154.717 128-181.075v-66.86c-110.415 28.419-192 128.649-192 247.935 0 141.385 114.615 256 256 256 33.155 0 64.838-6.303 93.916-17.776 54.64 123.558 178.294 209.776 322.084 209.776 194.404 0 352-157.596 352-352 0-85.096-30.196-163.14-80.458-224z" />
<glyph unicode="&#xe921;" glyph-name="cloud-upload" d="M521.373 502.627c5.791 5.791 13.791 9.373 22.627 9.373s16.837-3.582 22.627-9.373l192-192-45.255-45.255-137.373 137.373v-370.745c0-17.673-14.327-32-32-32s-32 14.327-32 32v370.745l-137.373-137.373-45.255 45.255 192 192zM943.542 320h-47.542v-23.771 66.736c40.026 49.463 64 112.449 64 181.035 0 159.058-128.942 288-288 288-115.136 0-217.784-68.163-263.552-171.66l-24.855-56.204-57.166 22.555c-22.193 8.756-45.942 13.309-70.427 13.309-106.039 0-192-85.961-192-192 0-83.598 53.428-154.717 128-181.075v-66.86c-110.415 28.419-192 128.649-192 247.935 0 141.385 114.615 256 256 256 33.155 0 64.838-6.303 93.916-17.776 54.64 123.558 178.294 209.776 322.084 209.776 194.404 0 352-157.596 352-352 0-85.096-30.196-163.14-80.458-224z" />
<glyph unicode="&#xe922;" glyph-name="comment" d="M512-64l-128 128h-256c-70.692 0-128 57.308-128 128v640c0 70.692 57.308 128 128 128h768c70.692 0 128-57.308 128-128v-640c0-70.692-57.308-128-128-128h-256l-128-128zM512 26.51l101.49 101.49h282.51c35.346 0 64 28.654 64 64v640c0 35.346-28.654 64-64 64h-768c-35.346 0-64-28.654-64-64v-640c0-35.346 28.654-64 64-64h282.51l101.49-101.49zM512 448c-35.346 0-64 28.654-64 64s28.654 64 64 64c35.346 0 64-28.654 64-64s-28.654-64-64-64zM768 448c-35.346 0-64 28.654-64 64s28.654 64 64 64c35.346 0 64-28.654 64-64s-28.654-64-64-64zM256 448c-35.346 0-64 28.654-64 64s28.654 64 64 64c35.346 0 64-28.654 64-64s-28.654-64-64-64z" />
<glyph unicode="&#xe923;" glyph-name="currency" d="M576 466.745v-18.745h192v-64h-192v-64h128v-64h-128v-128h-64v128h-128v64h128v64h-192v64h192v18.745l-150.627 150.627 45.255 45.255 137.373-137.373 137.373 137.373 45.255-45.255-150.627-150.627zM544-64c-265.097 0-480 214.903-480 480s214.903 480 480 480c265.097 0 480-214.903 480-480s-214.903-480-480-480zM544 0c229.75 0 416 186.25 416 416s-186.25 416-416 416c-229.75 0-416-186.25-416-416s186.25-416 416-416z" />
<glyph unicode="&#xe924;" glyph-name="document" d="M791.497 704h77.994l-165.49 165.49v-155.987c0-2.624 1.064-5 2.783-6.72s4.096-2.783 6.72-2.783h77.994zM640 896h-448c-35.346 0-64-28.654-64-64v-768c0-35.346 28.654-64 64-64h640c35.346 0 64 28.654 64 64v576h-182.497c-40.595 0-73.503 32.908-73.503 73.503v182.497zM192 960h485.49c16.974 0 33.253-6.743 45.255-18.745l218.51-218.51c12.002-12.002 18.745-28.281 18.745-45.255v-613.49c0-70.692-57.308-128-128-128h-640c-70.692 0-128 57.308-128 128v768c0 70.692 57.308 128 128 128z" />
<glyph unicode="&#xe925;" glyph-name="download" d="M128 192v-128c0-35.346 26.607-64 59.429-64h713.143c32.821 0 59.429 28.654 59.429 64v128h-832zM512 365.255v498.745c0 17.673 14.327 32 32 32s32-14.327 32-32v-498.745l137.373 137.373 45.255-45.255-192-192c-5.791-5.791-13.791-9.373-22.628-9.373-8.881 0-16.916 3.617-22.714 9.459l-191.913 191.913 45.255 45.255 137.372-137.372zM64 192h960v-128c0-70.692-53.726-128-120-128h-720c-66.274 0-120 57.308-120 128v128z" />
<glyph unicode="&#xe926;" glyph-name="email" d="M909.231 830.631c-4.269 0.897-8.695 1.369-13.231 1.369h-768c-4.536 0-8.962-0.472-13.231-1.369l376.406-322.634c11.984-10.272 29.667-10.272 41.651 0l376.406 322.634zM957.035 787.312l-382.559-327.908c-35.951-30.815-89.001-30.815-124.952 0l-382.559 327.908c-1.926-6.094-2.965-12.581-2.965-19.312v-640c0-35.346 28.654-64 64-64h768c35.346 0 64 28.654 64 64v640c0 6.731-1.039 13.218-2.965 19.312zM128 896h768c70.692 0 128-57.308 128-128v-640c0-70.692-57.308-128-128-128h-768c-70.692 0-128 57.308-128 128v640c0 70.692 57.308 128 128 128z" />
<glyph unicode="&#xe927;" glyph-name="eye" d="M512 128c215.709 0 448 200.566 448 320s-232.291 320-448 320c-215.709 0-448-200.566-448-320s232.291-320 448-320zM512 64c-282.77 0-512 256-512 384s229.23 384 512 384c282.77 0 512-256 512-384s-229.23-384-512-384zM512 320c70.692 0 128 57.308 128 128s-57.308 128-128 128c-70.692 0-128-57.308-128-128s57.308-128 128-128zM512 256c-106.039 0-192 85.961-192 192s85.961 192 192 192c106.039 0 192-85.961 192-192s-85.961-192-192-192z" />
<glyph unicode="&#xe928;" glyph-name="eye-off" d="M192.818 721.927l-119.445 119.445c-12.497 12.497-12.497 32.758 0 45.255s32.758 12.497 45.255 0l129.084-129.084c77.151 44.519 167.589 74.457 264.288 74.457 282.77 0 512-256 512-384 0-73.361-75.298-188.768-192.818-273.927l119.445-119.445c12.497-12.497 12.497-32.758 0-45.255s-32.758-12.497-45.255 0l-129.084 129.084c-77.151-44.519-167.589-74.457-264.288-74.457-282.77 0-512 256-512 384 0 73.361 75.298 188.768 192.818 273.927zM239.076 675.67c-102.114-68.314-175.076-160.734-175.076-227.67 0-119.434 232.291-320 448-320 73.405 0 148.73 23.226 216.168 58.577l-104.919 104.919c-31.386-22.351-69.783-35.496-111.249-35.496-106.039 0-192 85.961-192 192 0 41.467 13.145 79.863 35.496 111.249l-116.42 116.42zM295.832 709.423l104.919-104.919c31.386 22.351 69.783 35.496 111.249 35.496 106.039 0 192-85.961 192-192 0-41.467-13.145-79.863-35.496-111.249l116.42-116.42c102.114 68.314 175.076 160.734 175.076 227.67 0 119.434-232.291 320-448 320-73.405 0-148.73-23.226-216.168-58.577zM401.722 513.023c-11.26-19.056-17.722-41.285-17.722-65.023 0-70.692 57.308-128 128-128 23.738 0 45.967 6.462 65.023 17.722l-175.301 175.301zM446.977 558.278l175.301-175.301c11.26 19.056 17.722 41.285 17.722 65.023 0 70.692-57.308 128-128 128-23.738 0-45.967-6.462-65.023-17.722z" />
<glyph unicode="&#xe929;" glyph-name="fast-backward" d="M547.911 448l329.373 329.373-45.255 45.255-374.627-374.627 374.627-374.627 45.255 45.255-329.373 329.373zM227.911 448l329.373 329.373-45.255 45.255-374.627-374.627 374.627-374.627 45.255 45.255-329.373 329.373z" />
<glyph unicode="&#xe92a;" glyph-name="fast-forward" d="M466.745 448l-329.373 329.373 45.255 45.255 374.627-374.627-374.627-374.627-45.255 45.255 329.373 329.373zM786.745 448l-329.373 329.373 45.255 45.255 374.627-374.627-374.627-374.627-45.255 45.255 329.373 329.373z" />
<glyph unicode="&#xe92b;" glyph-name="female" d="M544 448c123.712 0 224 100.288 224 224s-100.288 224-224 224c-123.712 0-224-100.288-224-224s100.288-224 224-224zM512 385.758c-143.998 15.918-256 138.001-256 286.242 0 159.058 128.942 288 288 288s288-128.942 288-288c0-148.242-112.002-270.324-256-286.242v-193.758h160c17.673 0 32-14.327 32-32s-14.327-32-32-32h-160v-160c0-17.673-14.327-32-32-32s-32 14.327-32 32v160h-160c-17.673 0-32 14.327-32 32s14.327 32 32 32h160v193.758z" />
<glyph unicode="&#xe92c;" glyph-name="flash" d="M428.223 320h-396.223c-29.327 0-43.206 36.166-21.407 55.785l640 576c26.272 23.644 65.835-6.483 50.029-38.096l-168.845-337.689h460.223c30.073 0 43.539-37.723 20.264-56.767l-704-576c-26.706-21.85-64.317 8.214-48.885 39.077l168.845 337.689zM480 384c23.788 0 39.26-25.034 28.622-46.311l-125.091-250.182 518.824 424.492h-422.355c-23.788 0-39.26 25.034-28.622 46.311l116.435 232.869-452.422-407.18h364.609z" />
<glyph unicode="&#xe92d;" glyph-name="folder" d="M0 800c0 88.366 71.634 160 160 160h202.981c42.435 0 83.131-16.857 113.137-46.863l53.019-53.019c18.003-18.003 42.421-28.118 67.882-28.118h266.981c88.366 0 160-71.634 160-160v-576c0-88.366-71.634-160-160-160h-704c-88.366 0-160 71.634-160 160v704zM64 800v-704c0-53.019 42.981-96 96-96h704c53.019 0 96 42.981 96 96v576c0 53.019-42.981 96-96 96h-266.981c-42.435 0-83.131 16.857-113.137 46.863l-53.019 53.019c-18.003 18.003-42.421 28.118-67.882 28.118h-202.981c-53.019 0-96-42.981-96-96z" />
<glyph unicode="&#xe92e;" glyph-name="funnel" d="M154.51 832l293.49-293.49v-314.51l128-96v410.51l293.49 293.49h-714.981zM0 896h1024l-384-384v-512l-256 192v320l-384 384z" />
<glyph unicode="&#xe92f;" glyph-name="happy" d="M544-64c-265.097 0-480 214.903-480 480s214.903 480 480 480c265.097 0 480-214.903 480-480s-214.903-480-480-480zM544 0c229.75 0 416 186.25 416 416s-186.25 416-416 416c-229.75 0-416-186.25-416-416s186.25-416 416-416zM320 512c35.346 0 64-28.654 64-64s-28.654-64-64-64c-35.346 0-64 28.654-64 64s28.654 64 64 64zM768 512c35.346 0 64-28.654 64-64s-28.654-64-64-64c-35.346 0-64 28.654-64 64s28.654 64 64 64zM384 288c0 17.673 14.327 32 32 32s32-14.327 32-32c0-17.673 14.327-32 32-32h128c17.673 0 32 14.327 32 32s14.327 32 32 32c17.673 0 32-14.327 32-32 0-53.019-42.981-96-96-96h-128c-53.019 0-96 42.981-96 96z" />
<glyph unicode="&#xe930;" glyph-name="headphone" d="M64 384c0 282.77 200.576 512 448 512s448-229.23 448-512h-64c0 249.183-173.965 448-384 448s-384-198.817-384-448h-64zM128 384h-64c0 282.77 200.576 512 448 512s448-229.23 448-512h-64c0 249.183-173.965 448-384 448s-384-198.817-384-448zM96 384h64c53.019 0 96-42.981 96-96v-192c0-53.019-42.981-96-96-96h-64c-53.019 0-96 42.981-96 96v192c0 53.019 42.981 96 96 96zM96 320c-17.673 0-32-14.327-32-32v-192c0-17.673 14.327-32 32-32h64c17.673 0 32 14.327 32 32v192c0 17.673-14.327 32-32 32h-64zM864 384h64c53.019 0 96-42.981 96-96v-192c0-53.019-42.981-96-96-96h-64c-53.019 0-96 42.981-96 96v192c0 53.019 42.981 96 96 96zM864 320c-17.673 0-32-14.327-32-32v-192c0-17.673 14.327-32 32-32h64c17.673 0 32 14.327 32 32v192c0 17.673-14.327 32-32 32h-64z" />
<glyph unicode="&#xe931;" glyph-name="heart" d="M995.598 709.743c-15.36 36.963-37.26 69.962-65.107 98.007-53.909 54.305-124.664 84.232-199.184 84.232-84.926 0-164.501-38.648-219.4-106.43-54.9 67.782-134.474 106.43-219.4 106.43-74.422 0-145.177-30.125-199.283-84.827-27.945-28.243-49.945-61.341-65.206-98.403-15.855-38.45-23.783-79.178-23.387-121.096 0.694-90.872 39.738-175.599 107.124-232.679 3.072-2.577 5.946-5.054 8.82-7.73 14.765-13.279 57.476-52.323 111.583-101.772 92.655-84.728 208.004-190.167 255.174-232.084 6.937-6.045 15.657-9.414 24.675-9.414 9.117 0 17.937 3.369 24.675 9.414 34.188 30.423 104.844 95.034 179.761 163.51 73.53 67.188 149.537 136.753 194.031 176.59 68.872 57.377 108.61 143.096 108.907 235.156 0.099 42.116-7.928 82.845-23.783 121.096v0zM567.203 733.031c40.531 52.719 100.286 82.944 164.104 82.944 54.305 0 105.934-21.999 145.474-61.836 20.711-20.81 37.161-45.485 48.756-73.431 11.892-28.837 17.936-59.656 17.936-91.466-0.099-35.179-7.63-68.971-22.495-100.385-14.171-29.63-34.585-56.188-59.161-76.8l-1.784-1.586c-38.549-34.585-104.448-94.538-195.716-178.176-71.35-65.305-120.006-109.7-152.312-138.934-49.251 44.494-129.519 117.727-200.473 182.536l-46.873 42.81c-44.792 41.026-80.169 73.332-93.349 85.124-0.793 0.694-1.586 1.387-2.378 2.18-2.577 2.279-5.252 4.658-8.126 7.036-50.539 42.909-79.773 106.727-80.268 175.104-0.198 31.711 5.748 62.431 17.639 91.367 11.693 28.143 28.143 53.017 48.954 73.926 39.837 40.233 91.565 62.332 145.474 62.332 63.719 0 123.574-30.125 164.104-82.746 13.18-17.045 33.792-27.152 55.296-27.152 21.405-0.099 42.116 10.108 55.197 27.152v0z" />
<glyph unicode="&#xe932;" glyph-name="help-circled" d="M544-64c-265.097 0-480 214.903-480 480s214.903 480 480 480c265.097 0 480-214.903 480-480s-214.903-480-480-480zM544 0c229.75 0 416 186.25 416 416s-186.25 416-416 416c-229.75 0-416-186.25-416-416s186.25-416 416-416zM512 256h64v-64h-64v64zM704 512c0-69.765-55.454-115.449-128-125.773 0-30.498 0-36.632 0-66.227h-64v128h32c56.415 0 96 26.39 96 64s-39.585 64-96 64c-56.415 0-96-26.39-96-64h-64c0 79.723 72.415 128 160 128s160-48.277 160-128z" />
<glyph unicode="&#xe933;" glyph-name="help-filled" d="M544-64c-265.097 0-480 214.903-480 480s214.903 480 480 480c265.097 0 480-214.903 480-480s-214.903-480-480-480zM512 256v-64h64v64h-64zM704 512c0 79.723-72.415 128-160 128s-160-48.277-160-128h64c0 37.61 39.585 64 96 64s96-26.39 96-64c0-37.61-39.585-64-96-64h-32v-128h64c0 29.595 0 35.729 0 66.227 72.546 10.324 128 56.008 128 125.773z" />
<glyph unicode="&#xe934;" glyph-name="home" d="M640 0h192c35.346 0 64 28.654 64 64v456.183c0 17.796-7.41 34.789-20.451 46.899l-320 297.143c-24.556 22.802-62.542 22.802-87.098 0l-320-297.143c-13.041-12.11-20.451-29.102-20.451-46.899v-456.183c0-35.346 28.654-64 64-64h192v256c0 35.346 28.654 64 64 64h128c35.346 0 64-28.654 64-64v-256zM104.902 613.981l320 297.143c49.111 45.603 125.084 45.603 174.195 0l320-297.143c26.082-24.219 40.902-58.205 40.902-93.798v-456.183c0-70.692-57.308-128-128-128h-640c-70.692 0-128 57.308-128 128v456.183c0 35.593 14.82 69.578 40.902 93.798zM448 256v-256h128v256h-128z" />
<glyph unicode="&#xe935;" glyph-name="image" d="M960 416v416c0 35.346-28.654 64-64 64h-768c-35.346 0-64-28.654-64-64v-768c0-35.346 28.654-64 64-64h81.63l502.453 565.26c11.057 12.439 29.803 14.326 43.117 4.34l204.8-153.6zM960 336l-219.645 164.733-445.096-500.733h600.741c35.346 0 64 28.654 64 64v272zM128 960h768c70.692 0 128-57.308 128-128v-768c0-70.692-57.308-128-128-128h-768c-70.692 0-128 57.308-128 128v768c0 70.692 57.308 128 128 128zM320 512c-70.692 0-128 57.308-128 128s57.308 128 128 128c70.692 0 128-57.308 128-128s-57.308-128-128-128zM320 576c35.346 0 64 28.654 64 64s-28.654 64-64 64c-35.346 0-64-28.654-64-64s28.654-64 64-64z" />
<glyph unicode="&#xe936;" glyph-name="inbox" d="M867.267 890.401c-0.583 3.056-3.315 5.599 0.979 5.599h-712.492c4.294 0 1.562-2.543 1.090-5.003l-92.844-506.997c-4.121 0 873.659 0 896 0l-92.733 506.401zM155.754 960h712.492c28.107 0 55.814-25.788 61.886-57.6l93.868-518.4h-1024l93.868 518.4c6.072 31.812 33.779 57.6 61.886 57.6zM448 384v-64c0-35.346 28.654-64 64-64s64 28.654 64 64v64h448v-384c0-35.346-28.654-64-64-64h-896c-35.346 0-64 28.654-64 64v384h448zM448 384v0zM448 384v0zM64 320v-320h896v320h-320c0-70.692-57.308-128-128-128s-128 57.308-128 128h-320z" />
<glyph unicode="&#xe937;" glyph-name="information-circled" d="M512 256v192h-64v64h128v-256h64v-64h-192v64h64zM544-64c-265.097 0-480 214.903-480 480s214.903 480 480 480c265.097 0 480-214.903 480-480s-214.903-480-480-480zM544 0c229.75 0 416 186.25 416 416s-186.25 416-416 416c-229.75 0-416-186.25-416-416s186.25-416 416-416zM512 640h64v-64h-64v64z" />
<glyph unicode="&#xe938;" glyph-name="information-filled" d="M512 256h-64v-64h192v64h-64v256h-128v-64h64v-192zM544-64c-265.097 0-480 214.903-480 480s214.903 480 480 480c265.097 0 480-214.903 480-480s-214.903-480-480-480zM512 640v-64h64v64h-64z" />
<glyph unicode="&#xe939;" glyph-name="layers" d="M841.648 640l-329.648 211.916-329.648-211.916 329.648-211.916 329.648 211.916zM512 928l448-288-448-288-448 288 448 288zM512 229.574l399.229 245.679c15.051 9.262 34.762 4.57 44.024-10.482s4.57-34.762-10.482-44.024l-432.771-266.321-432.771 266.321c-15.051 9.262-19.744 28.973-10.482 44.024s28.973 19.744 44.024 10.482l399.229-245.679zM512 37.574l399.229 245.679c15.051 9.262 34.762 4.57 44.024-10.482s4.57-34.762-10.482-44.024l-432.771-266.321-432.771 266.321c-15.051 9.262-19.744 28.973-10.482 44.024s28.973 19.744 44.024 10.482l399.229-245.679z" />
<glyph unicode="&#xe93a;" glyph-name="link" d="M716.689 351.665l-45.459 45.049c105.737 106.699 179.949 181.392 222.66 224.103 65.123 65.123 71.831 138.914 0 210.745s-145.622 65.123-210.745 0c-43.384-43.384-118.538-110.97-225.776-203.089l-41.703 48.547c106.095 91.138 180.275 157.847 222.224 199.796 88.477 88.477 202.419 98.836 301.255 0s88.477-212.778 0-301.255c-42.623-42.623-116.782-117.263-222.455-223.897zM294.282 534.421l45.665-44.841c-104.807-106.732-178.565-181.453-221.32-224.207-65.123-65.123-71.831-138.914 0-210.745s145.622-65.123 210.745 0c42.71 42.71 117.404 116.923 224.103 222.66l45.049-45.459c-106.634-105.673-181.274-179.832-223.897-222.455-88.477-88.477-202.419-98.836-301.255 0s-88.477 212.778 0 301.255c42.579 42.579 116.231 117.192 220.91 223.793zM438.627 329.373l-45.255 45.255 192 192 45.255-45.255-192-192z" />
<glyph unicode="&#xe93b;" glyph-name="loading" d="M1024 448c0-282.77-229.23-512-512-512s-512 229.23-512 512c0 282.77 229.23 512 512 512v-64c-247.424 0-448-200.576-448-448s200.576-448 448-448c247.424 0 448 200.576 448 448h64zM1024 448c0-282.77-229.23-512-512-512s-512 229.23-512 512c0 282.77 229.23 512 512 512 17.673 0 32-14.327 32-32s-14.327-32-32-32c-247.424 0-448-200.576-448-448s200.576-448 448-448c247.424 0 448 200.576 448 448 0 17.673 14.327 32 32 32s32-14.327 32-32z" />
<glyph unicode="&#xe93c;" glyph-name="location" d="M511.989-63.97l-307.191 409.588c-49.85 66.467-76.798 147.31-76.798 230.393 0 212.071 171.918 383.989 383.989 383.989 83.084 0 163.926-26.948 230.393-76.798 169.657-127.243 204.040-367.927 76.798-537.584l-307.191-409.588zM511.989 42.697l255.991 341.321c106.035 141.38 77.382 341.949-63.998 447.984-55.389 41.542-122.757 63.998-191.993 63.998-176.725 0-319.989-143.264-319.989-319.989 0-69.236 22.456-136.604 63.998-191.993l255.991-341.321zM512 384c-106.039 0-192 85.961-192 192s85.961 192 192 192c106.039 0 192-85.961 192-192s-85.961-192-192-192zM512 448c70.692 0 128 57.308 128 128s-57.308 128-128 128c-70.692 0-128-57.308-128-128s57.308-128 128-128z" />
<glyph unicode="&#xe93d;" glyph-name="locked" d="M128 512c-35.346 0-64-28.654-64-64v-384c0-35.346 28.654-64 64-64h768c35.346 0 64 28.654 64 64v384c0 35.346-28.654 64-64 64h-768zM465.188 257.723v-91.34c0-26.51 21.49-48 48-48s48 21.49 48 48v0 91.951c26.999 7.509 46.812 32.274 46.812 61.666v64c0 35.346-28.654 64-64 64h-64c-35.346 0-64-28.654-64-64v-64c0-30.247 20.983-55.594 49.188-62.277zM192 576v128c0 141.385 114.615 256 256 256h128c141.385 0 256-114.615 256-256v-128h64c70.692 0 128-57.308 128-128v-384c0-70.692-57.308-128-128-128h-768c-70.692 0-128 57.308-128 128v384c0 70.692 57.308 128 128 128h64zM768 576v128c0 106.039-85.961 192-192 192h-128c-106.039 0-192-85.961-192-192v-128h512z" />
<glyph unicode="&#xe93e;" glyph-name="male" d="M320 0c141.385 0 256 114.615 256 256s-114.615 256-256 256c-141.385 0-256-114.615-256-256s114.615-256 256-256zM960 850.745l-392.226-392.226c45.142-55.164 72.226-125.679 72.226-202.519 0-176.731-143.269-320-320-320s-320 143.269-320 320c0 176.731 143.269 320 320 320 76.841 0 147.356-27.084 202.519-72.226l392.226 392.226h-242.745c-17.673 0-32 14.327-32 32v0 0c0 17.673 14.327 32 32 32h320c8.837 0 16.837-3.582 22.627-9.373s9.373-13.791 9.373-22.627v-320c0-17.673-14.327-32-32-32s-32 14.327-32 32v242.745z" />
<glyph unicode="&#xe93f;" glyph-name="map" d="M354.909 894.065c16.598 3.803 37.883 2.11 61.091-6.048l192-67.493c23.208-8.158 44.493-21.43 61.091-36.902 13.832 15.472 31.569 28.744 50.909 36.902l160 67.493c44.183 18.638 80 3.529 80-33.747v-674.93c0-37.275-35.817-82.602-80-101.24l-160-67.493c-19.34-8.158-37.077-9.85-50.909-6.048-16.598-3.803-37.883-2.11-61.091 6.048l-192 67.493c-23.208 8.158-44.493 21.43-61.091 36.902-13.832-15.472-31.569-28.744-50.909-36.902l-160-67.493c-44.183-18.638-80-3.529-80 33.746v674.93c0 37.275 35.817 82.602 80 101.24l160 67.493c19.34 8.158 37.077 9.85 50.909 6.048zM384 179.34c0-5.794 23.266-30.33 53.224-40.861l192-67.493c3.937-1.384 7.559-2.396 10.776-3.108v651.407c0 5.794-23.266 30.33-53.224 40.861l-192 67.493c-3.937 1.384-7.559 2.396-10.776 3.108v-651.407zM855.125 137.069c22.118 9.33 40.875 33.066 40.875 42.271v645.965l-151.125-63.749c-22.118-9.33-40.875-33.066-40.875-42.271v-645.965l151.125 63.749zM128 73.32l151.125 63.749c22.118 9.33 40.875 33.066 40.875 42.271v645.965l-151.125-63.749c-22.118-9.33-40.875-33.066-40.875-42.271v-645.965z" />
<glyph unicode="&#xe940;" glyph-name="maximize" d="M64 52.797v235.203c0 17.673-14.327 32-32 32v0 0c-17.673 0-32-14.327-32-32v-320c0-8.837 3.582-16.837 9.373-22.627s13.791-9.373 22.627-9.373h320c17.673 0 32 14.327 32 32s-14.327 32-32 32h-235.203l320.268 320.268c14.58 14.58 14.58 38.218 0 52.797s-38.218 14.58-52.797 0l-320.268-320.268zM960 843.203v-235.203c0-17.673 14.327-32 32-32s32 14.327 32 32v320c0 8.837-3.582 16.837-9.373 22.627s-13.791 9.373-22.627 9.373h-320c-17.673 0-32-14.327-32-32v0c0-17.673 14.327-32 32-32h235.203l-320.268-320.268c-14.58-14.58-14.58-38.218 0-52.797s38.218-14.58 52.797 0l320.268 320.268z" />
<glyph unicode="&#xe941;" glyph-name="maximize-b" d="M128 288v-160c0-35.346 28.654-64 64-64h160c17.673 0 32-14.327 32-32s-14.327-32-32-32h-160c-70.692 0-128 57.308-128 128v0 160c0 17.673 14.327 32 32 32s32-14.327 32-32zM128 608c0-17.673-14.327-32-32-32s-32 14.327-32 32v160c0 70.692 57.308 128 128 128h160c17.673 0 32-14.327 32-32s-14.327-32-32-32h-160c-35.346 0-64-28.654-64-64v-160zM896 288c0 17.673 14.327 32 32 32s32-14.327 32-32v-160c0-70.692-57.308-128-128-128h-160c-17.673 0-32 14.327-32 32s14.327 32 32 32h160c35.346 0 64 28.654 64 64v160zM896 608v160c0 35.346-28.654 64-64 64v0h-160c-17.673 0-32 14.327-32 32s14.327 32 32 32h160c70.692 0 128-57.308 128-128v0-160c0-17.673-14.327-32-32-32s-32 14.327-32 32z" />
<glyph unicode="&#xe942;" glyph-name="microphone" d="M512 896c-70.692 0-128-57.308-128-128v-256c0-70.692 57.308-128 128-128s128 57.308 128 128v256c0 70.692-57.308 128-128 128zM464.145 0v163.226c-171.767 23.348-304.145 170.602-304.145 348.774 0 17.673 14.327 32 32 32s32-14.327 32-32c0-159.058 128.942-288 288-288s288 128.942 288 288c0 17.673 14.327 32 32 32s32-14.327 32-32c0-178.173-132.378-325.427-304.145-348.774v-163.226h112.145c17.673 0 32-14.327 32-32s-14.327-32-32-32h-320c-17.673 0-32 14.327-32 32s14.327 32 32 32h112.145zM512 960c106.039 0 192-85.961 192-192v-256c0-106.039-85.961-192-192-192s-192 85.961-192 192v256c0 106.039 85.961 192 192 192z" />
<glyph unicode="&#xe943;" glyph-name="minimize" d="M384 267.203v-235.203c0-17.673 14.327-32 32-32s32 14.327 32 32v320c0 8.837-3.582 16.837-9.373 22.627s-13.791 9.373-22.627 9.373h-320c-17.673 0-32-14.327-32-32s14.327-32 32-32h235.203l-320.268-320.268c-14.58-14.58-14.58-38.218 0-52.797s38.218-14.58 52.797 0l320.268 320.268zM640 628.797v235.203c0 17.673-14.327 32-32 32s-32-14.327-32-32v-320c0-8.837 3.582-16.837 9.373-22.627s13.791-9.373 22.627-9.373h320c17.673 0 32 14.327 32 32s-14.327 32-32 32h-235.203l320.268 320.268c14.58 14.58 14.58 38.218 0 52.797s-38.218 14.58-52.797 0l-320.268-320.268z" />
<glyph unicode="&#xe944;" glyph-name="minimize-b" d="M320 32v160c0 35.346-28.654 64-64 64h-160c-17.673 0-32 14.327-32 32s14.327 32 32 32h160c70.692 0 128-57.308 128-128v0-160c0-17.673-14.327-32-32-32s-32 14.327-32 32zM320 864c0 17.673 14.327 32 32 32s32-14.327 32-32v-160c0-70.692-57.308-128-128-128h-160c-17.673 0-32 14.327-32 32s14.327 32 32 32h160c35.346 0 64 28.654 64 64v160zM704 32c0-17.673-14.327-32-32-32s-32 14.327-32 32v160c0 70.692 57.308 128 128 128h160c17.673 0 32-14.327 32-32s-14.327-32-32-32h-160c-35.346 0-64-28.654-64-64v-160zM704 864v-160c0-35.346 28.654-64 64-64v0h160c17.673 0 32-14.327 32-32s-14.327-32-32-32h-160c-70.692 0-128 57.308-128 128v0 160c0 17.673 14.327 32 32 32s32-14.327 32-32z" />
<glyph unicode="&#xe945;" glyph-name="minus" d="M160 448h768c17.673 0 32-14.327 32-32s-14.327-32-32-32h-768c-17.673 0-32 14.327-32 32s14.327 32 32 32z" />
<glyph unicode="&#xe946;" glyph-name="minus-circled" d="M544-64c-265.097 0-480 214.903-480 480s214.903 480 480 480c265.097 0 480-214.903 480-480s-214.903-480-480-480zM544 0c229.75 0 416 186.25 416 416s-186.25 416-416 416c-229.75 0-416-186.25-416-416s186.25-416 416-416zM320 448h448v-64h-448v64z" />
<glyph unicode="&#xe947;" glyph-name="monitor" d="M128 832c-35.346 0-64-28.654-64-64v-448c0-35.346 28.654-64 64-64h768c35.346 0 64 28.654 64 64v448c0 35.346-28.654 64-64 64h-768zM448 64v128h-320c-70.692 0-128 57.308-128 128v448c0 70.692 57.308 128 128 128h768c70.692 0 128-57.308 128-128v-448c0-70.692-57.308-128-128-128h-320v-128h96c17.673 0 32-14.327 32-32s-14.327-32-32-32h-320c-17.673 0-32 14.327-32 32s14.327 32 32 32h96z" />
<glyph unicode="&#xe948;" glyph-name="moon" d="M128 448c0-229.75 154.25-384 384-384 154.488 0 275.276 69.824 337.541 186.076-45.828-17.104-94.977-26.187-145.541-26.187-229.75 0-416 186.25-416 416 0 50.643 9.111 99.866 26.267 145.755-116.365-62.234-186.267-183.070-186.267-337.643zM352 639.889c0-194.404 157.596-352 352-352 99.592 0 189.523 41.36 253.555 107.84-22.495-236.569-198.263-395.729-445.555-395.729-265.097 0-448 182.903-448 448 0 247.38 159.273 423.185 395.981 445.579-66.562-64.041-107.981-154.029-107.981-253.69z" />
<glyph unicode="&#xe949;" glyph-name="more" d="M512 384c-35.346 0-64 28.654-64 64s28.654 64 64 64c35.346 0 64-28.654 64-64s-28.654-64-64-64zM768 384c-35.346 0-64 28.654-64 64s28.654 64 64 64c35.346 0 64-28.654 64-64s-28.654-64-64-64zM256 384c-35.346 0-64 28.654-64 64s28.654 64 64 64c35.346 0 64-28.654 64-64s-28.654-64-64-64z" />
<glyph unicode="&#xe94a;" glyph-name="navigation" d="M512-64c-282.77 0-512 229.23-512 512s229.23 512 512 512c282.77 0 512-229.23 512-512s-229.23-512-512-512zM512 0c247.424 0 448 200.576 448 448s-200.576 448-448 448c-247.424 0-448-200.576-448-448s200.576-448 448-448zM352 608l448 128-128-448-448-128 128 448zM403.77 556.23l-86.584-303.045 303.045 86.584 86.584 303.045-303.045-86.584zM512 384c-35.346 0-64 28.654-64 64s28.654 64 64 64c35.346 0 64-28.654 64-64s-28.654-64-64-64z" />
<glyph unicode="&#xe94b;" glyph-name="neutral" d="M544-64c-265.097 0-480 214.903-480 480s214.903 480 480 480c265.097 0 480-214.903 480-480s-214.903-480-480-480zM544 0c229.75 0 416 186.25 416 416s-186.25 416-416 416c-229.75 0-416-186.25-416-416s186.25-416 416-416zM320 512c35.346 0 64-28.654 64-64s-28.654-64-64-64c-35.346 0-64 28.654-64 64s28.654 64 64 64zM768 512c35.346 0 64-28.654 64-64s-28.654-64-64-64c-35.346 0-64 28.654-64 64s28.654 64 64 64zM416 192c-17.673 0-32 14.327-32 32s14.327 32 32 32h256c17.673 0 32-14.327 32-32s-14.327-32-32-32h-256z" />
<glyph unicode="&#xe94c;" glyph-name="pause" d="M320 832c70.692 0 128-57.308 128-128v-512c0-70.692-57.308-128-128-128s-128 57.308-128 128v512c0 70.692 57.308 128 128 128zM320 768c-35.346 0-64-28.654-64-64v-512c0-35.346 28.654-64 64-64s64 28.654 64 64v512c0 35.346-28.654 64-64 64zM704 832c70.692 0 128-57.308 128-128v-512c0-70.692-57.308-128-128-128s-128 57.308-128 128v512c0 70.692 57.308 128 128 128zM704 768c-35.346 0-64-28.654-64-64v-512c0-35.346 28.654-64 64-64s64 28.654 64 64v512c0 35.346-28.654 64-64 64z" />
<glyph unicode="&#xe94d;" glyph-name="phone" d="M256 960h512c70.692 0 128-57.308 128-128v-768c0-70.692-57.308-128-128-128h-512c-70.692 0-128 57.308-128 128v768c0 70.692 57.308 128 128 128zM256 896c-35.346 0-64-28.654-64-64v-768c0-35.346 28.654-64 64-64h512c35.346 0 64 28.654 64 64v768c0 35.346-28.654 64-64 64h-512zM320 832h384c35.346 0 64-28.654 64-64v-512c0-35.346-28.654-64-64-64h-384c-35.346 0-64 28.654-64 64v512c0 35.346 28.654 64 64 64zM320 768v-512h384v512h-384zM480 128h64c17.673 0 32-14.327 32-32s-14.327-32-32-32h-64c-17.673 0-32 14.327-32 32s14.327 32 32 32z" />
<glyph unicode="&#xe94e;" glyph-name="play" d="M192 731.53c0 18.207 4.702 36.071 13.604 51.684 27.125 47.573 85.762 63 130.97 34.456l449.066-283.538c13.436-8.483 24.681-20.317 32.742-34.456 27.125-47.573 12.465-109.279-32.742-137.823l-449.066-283.538c-14.836-9.367-31.812-14.316-49.114-14.316-52.721 0-95.46 44.975-95.46 100.455v567.075zM255.64 731.53v-567.075c0-18.493 14.246-33.485 31.82-33.485 5.767 0 11.426 1.649 16.371 4.772l449.066 283.538c15.069 9.515 19.956 30.083 10.914 45.941-2.687 4.713-6.436 8.657-10.914 11.485l-449.066 283.538c-15.069 9.515-34.615 4.373-43.657-11.485-2.967-5.204-4.535-11.159-4.535-17.228z" />
<glyph unicode="&#xe94f;" glyph-name="play-circled" d="M512 0c247.424 0 448 200.576 448 448s-200.576 448-448 448c-247.424 0-448-200.576-448-448s200.576-448 448-448zM512-64c-282.77 0-512 229.23-512 512s229.23 512 512 512c282.77 0 512-229.23 512-512s-229.23-512-512-512zM384 295.554l304.892 152.446-304.892 152.446v-304.892zM320 652.223c0 4.968 1.157 9.867 3.378 14.311 7.904 15.807 27.125 22.214 42.933 14.311l408.446-204.223c6.193-3.096 11.214-8.118 14.311-14.311 7.904-15.807 1.496-35.029-14.311-42.933l-408.446-204.223c-4.443-2.222-9.343-3.378-14.311-3.378-17.673 0-32 14.327-32 32v408.446z" />
<glyph unicode="&#xe950;" glyph-name="plus" d="M512 448h-352c-17.673 0-32-14.327-32-32s14.327-32 32-32h352v-352c0-17.673 14.327-32 32-32s32 14.327 32 32v352h352c17.673 0 32 14.327 32 32s-14.327 32-32 32h-352v352c0 17.673-14.327 32-32 32v0 0c-17.673 0-32-14.327-32-32v-352z" />
<glyph unicode="&#xe951;" glyph-name="plus-circled" d="M512 448v192h64v-192h192v-64h-192v-192h-64v192h-192v64h192zM544-64c-265.097 0-480 214.903-480 480s214.903 480 480 480c265.097 0 480-214.903 480-480s-214.903-480-480-480zM544 0c229.75 0 416 186.25 416 416s-186.25 416-416 416c-229.75 0-416-186.25-416-416s186.25-416 416-416z" />
<glyph unicode="&#xe952;" glyph-name="printer" d="M832 128v-64c0-35.346-28.654-64-64-64h-512c-35.346 0-64 28.654-64 64v64h-64c-70.692 0-128 57.308-128 128v192c0 70.692 57.308 128 128 128h768c70.692 0 128-57.308 128-128v-192c0-70.692-57.308-128-128-128h-64zM832 192h64c35.346 0 64 28.654 64 64v192c0 35.346-28.654 64-64 64h-768c-35.346 0-64-28.654-64-64v-192c0-35.346 28.654-64 64-64h64v128c0 35.346 28.654 64 64 64h512c35.346 0 64-28.654 64-64v-128zM256 320v-256h512v256h-512zM256 832v-256h512v256h-512zM256 896h512c35.346 0 64-28.654 64-64v-256c0-35.346-28.654-64-64-64h-512c-35.346 0-64 28.654-64 64v256c0 35.346 28.654 64 64 64z" />
<glyph unicode="&#xe953;" glyph-name="refresh" d="M832 761.647v102.353c0 17.673 14.327 32 32 32s32-14.327 32-32v-192c0-8.837-3.582-16.837-9.373-22.627s-13.791-9.373-22.627-9.373h-192c-17.673 0-32 14.327-32 32s14.327 32 32 32h126.295c-49.092 55.032-113.438 95.229-186.909 114.916-204.851 54.89-415.412-66.678-470.302-271.529s66.678-415.412 271.529-470.302c204.851-54.89 415.412 66.678 470.302 271.529l61.819-16.564c-64.038-238.993-309.693-380.822-548.686-316.784s-380.822 309.693-316.784 548.686c64.038 238.993 309.693 380.822 548.686 316.784 78.844-21.126 148.754-62.568 204.049-119.088z" />
<glyph unicode="&#xe954;" glyph-name="sad" d="M544-64c-265.097 0-480 214.903-480 480s214.903 480 480 480c265.097 0 480-214.903 480-480s-214.903-480-480-480zM544 0c229.75 0 416 186.25 416 416s-186.25 416-416 416c-229.75 0-416-186.25-416-416s186.25-416 416-416zM384 160c0 53.019 42.981 96 96 96h128c53.019 0 96-42.981 96-96 0-17.673-14.327-32-32-32s-32 14.327-32 32c0 17.673-14.327 32-32 32h-128c-17.673 0-32-14.327-32-32s-14.327-32-32-32c-17.673 0-32 14.327-32 32zM320 512c35.346 0 64-28.654 64-64s-28.654-64-64-64c-35.346 0-64 28.654-64 64s28.654 64 64 64zM768 512c35.346 0 64-28.654 64-64s-28.654-64-64-64c-35.346 0-64 28.654-64 64s28.654 64 64 64z" />
<glyph unicode="&#xe955;" glyph-name="save" d="M192 896h-64c-35.346 0-64-28.654-64-64v-768c0-35.346 28.654-64 64-64h768c35.346 0 64 28.654 64 64v591.906c0 15.502-5.627 30.478-15.835 42.144l-154.082 176.094c-12.153 13.889-29.71 21.856-48.165 21.856h-101.918v-320c0-35.346-28.654-64-64-64h-320c-35.346 0-64 28.654-64 64v320zM128 960h613.918c36.91 0 72.024-15.933 96.33-43.711l154.082-176.094c20.417-23.333 31.67-53.284 31.67-84.289v-591.906c0-70.692-57.308-128-128-128h-768c-70.692 0-128 57.308-128 128v768c0 70.692 57.308 128 128 128zM256 576h320v320h-320v-320zM480 832c17.673 0 32-14.327 32-32v-128c0-17.673-14.327-32-32-32s-32 14.327-32 32v128c0 17.673 14.327 32 32 32z" />
<glyph unicode="&#xe956;" glyph-name="scan" d="M32 512h960c17.673 0 32-14.327 32-32s-14.327-32-32-32h-960c-17.673 0-32 14.327-32 32s14.327 32 32 32v0zM64 288v-224c0-35.346 28.654-64 64-64h224c17.673 0 32-14.327 32-32s-14.327-32-32-32h-224c-70.692 0-128 57.308-128 128v0 224c0 17.673 14.327 32 32 32s32-14.327 32-32zM64 608c0-17.673-14.327-32-32-32s-32 14.327-32 32v224c0 70.692 57.308 128 128 128h224c17.673 0 32-14.327 32-32s-14.327-32-32-32h-224c-35.346 0-64-28.654-64-64v-224zM960 288c0 17.673 14.327 32 32 32s32-14.327 32-32v-224c0-70.692-57.308-128-128-128h-224c-17.673 0-32 14.327-32 32s14.327 32 32 32h224c35.346 0 64 28.654 64 64v224zM960 608v224c0 35.346-28.654 64-64 64h-224c-17.673 0-32 14.327-32 32s14.327 32 32 32h224c70.692 0 128-57.308 128-128v0-224c0-17.673-14.327-32-32-32s-32 14.327-32 32z" />
<glyph unicode="&#xe957;" glyph-name="search" d="M731.918 273.337l314.71-314.71-45.255-45.255-314.71 314.71c-72.753-62.39-167.306-100.082-270.663-100.082-229.75 0-416 186.25-416 416s186.25 416 416 416c229.75 0 416-186.25 416-416 0-103.357-37.693-197.91-100.082-270.663zM416 192c194.404 0 352 157.596 352 352s-157.596 352-352 352c-194.404 0-352-157.596-352-352s157.596-352 352-352z" />
<glyph unicode="&#xe958;" glyph-name="settings" d="M825.599 512c-8.293 40.856-24.371 78.885-46.616 112.473l95.056 95.056-90.51 90.51-95.056-95.056c-33.588 22.246-71.617 38.323-112.473 46.616v134.401h-128v-134.401c-40.856-8.293-78.885-24.371-112.473-46.616l-95.056 95.056-90.51-90.51 95.056-95.056c-22.246-33.588-38.323-71.617-46.616-112.473h-134.401v-128h134.401c8.293-40.856 24.371-78.885 46.616-112.473l-95.056-95.056 90.51-90.51 95.056 95.056c33.588-22.246 71.617-38.323 112.473-46.616v-134.401h128v134.401c40.856 8.293 78.885 24.371 112.473 46.616l95.056-95.056 90.51 90.51-95.056 95.056c22.246 33.588 38.323 71.617 46.616 112.473h134.401v128h-134.401zM874.15 576h85.85c35.346 0 64-28.654 64-64v-128c0-35.346-28.654-64-64-64h-85.85c-4.541-12.847-9.745-25.379-15.573-37.557l60.717-60.717c24.994-24.994 24.994-65.516 0-90.51l-90.51-90.51c-24.994-24.994-65.516-24.994-90.51 0l-60.717 60.717c-12.178-5.828-24.711-11.033-37.557-15.573v-85.85c0-35.346-28.654-64-64-64h-128c-35.346 0-64 28.654-64 64v85.85c-12.847 4.541-25.379 9.745-37.557 15.573l-60.717-60.717c-24.994-24.994-65.516-24.994-90.51 0l-90.51 90.51c-24.994 24.994-24.994 65.516 0 90.51l60.717 60.717c-5.828 12.178-11.033 24.711-15.573 37.557h-85.85c-35.346 0-64 28.654-64 64v128c0 35.346 28.654 64 64 64h85.85c4.541 12.847 9.745 25.379 15.573 37.557l-60.717 60.717c-24.994 24.994-24.994 65.516 0 90.51l90.51 90.51c24.994 24.994 65.516 24.994 90.51 0l60.717-60.717c12.178 5.828 24.711 11.033 37.557 15.573v85.85c0 35.346 28.654 64 64 64h128c35.346 0 64-28.654 64-64v-85.85c12.847-4.541 25.379-9.745 37.557-15.573l60.717 60.717c24.994 24.994 65.516 24.994 90.51 0l90.51-90.51c24.994-24.994 24.994-65.516 0-90.51l-60.717-60.717c5.828-12.178 11.033-24.711 15.573-37.557zM512 256c-106.039 0-192 85.961-192 192s85.961 192 192 192c106.039 0 192-85.961 192-192s-85.961-192-192-192zM512 320c70.692 0 128 57.308 128 128s-57.308 128-128 128c-70.692 0-128-57.308-128-128s57.308-128 128-128z" />
<glyph unicode="&#xe959;" glyph-name="share" d="M738.479 700.77l-252.465-140.258c16.642-33.959 25.986-72.144 25.986-112.512s-9.343-78.554-25.986-112.512l252.465-140.258c29.305 37.020 74.64 60.77 125.521 60.77 88.366 0 160-71.634 160-160s-71.634-160-160-160c-88.366 0-160 71.634-160 160 0 14.558 1.944 28.662 5.588 42.067l-258.82 143.789c-46.954-54.991-116.79-89.856-194.768-89.856-141.385 0-256 114.615-256 256s114.615 256 256 256c77.978 0 147.813-34.864 194.768-89.856l258.82 143.789c-3.643 13.404-5.588 27.509-5.588 42.067 0 88.366 71.634 160 160 160s160-71.634 160-160c0-88.366-71.634-160-160-160-50.882 0-96.216 23.751-125.521 60.77zM256 256c106.039 0 192 85.961 192 192s-85.961 192-192 192c-106.039 0-192-85.961-192-192s85.961-192 192-192zM864 0c53.019 0 96 42.981 96 96s-42.981 96-96 96c-53.019 0-96-42.981-96-96s42.981-96 96-96zM864 704c53.019 0 96 42.981 96 96s-42.981 96-96 96c-53.019 0-96-42.981-96-96s42.981-96 96-96z" />
<glyph unicode="&#xe95a;" glyph-name="skip-back" d="M224 832v0c17.673 0 32-14.327 32-32v-704c0-17.673-14.327-32-32-32s-32 14.327-32 32v704c0 17.673 14.327 32 32 32v0zM493.255 448l329.373-329.373-45.255-45.255-374.627 374.627 374.627 374.627 45.255-45.255-329.373-329.373z" />
<glyph unicode="&#xe95b;" glyph-name="skip-forward" d="M800 832c17.673 0 32-14.327 32-32v-704c0-17.673-14.327-32-32-32s-32 14.327-32 32v704c0 17.673 14.327 32 32 32zM256 128l329.373 329.373-329.373 329.373 45.255 45.255 374.627-374.627-374.627-374.627-45.255 45.255z" />
<glyph unicode="&#xe95c;" glyph-name="star" d="M527.992 887.151l124.355-265.38c2.499-5.362 7.497-9.057 13.209-9.891l279.532-42.78c14.161-2.145 19.873-19.424 9.877-29.672l-203.253-208.658c-3.927-4.052-5.712-9.652-4.76-15.134l47.838-293.86c1.904-11.321-7.14-20.496-17.374-20.496-2.856 0-5.712 0.715-8.449 2.264l-248.473 137.516c-2.618 1.43-5.593 2.145-8.449 2.145s-5.831-0.715-8.449-2.145l-248.473-137.516c-2.737-1.549-5.712-2.264-8.449-2.264-10.115 0-19.159 9.057-17.374 20.496l47.838 293.86c0.952 5.482-0.833 11.082-4.76 15.134l-203.372 208.658c-9.996 10.248-4.165 27.527 9.877 29.672l279.651 42.78c5.831 0.834 10.71 4.647 13.209 9.891l124.355 265.38c3.213 6.792 9.639 10.129 15.946 10.129s12.733-3.337 15.946-10.129zM460.769 945.726c-16.781-10.16-30.023-24.886-38.356-42.694l-104.566-222.602-233.675-35.731c-36.872-5.594-67.123-31.050-78.995-66.438s-2.968-73.858 23.059-100.571l172.032-176.37-40.639-248.858c-4.68-28.767 3.425-57.877 22.26-80.023 18.95-22.26 46.461-35.046 75.571-35.046 16.667 0 33.219 4.338 47.945 12.443l206.621 114.155 206.621-114.269c14.726-8.105 31.278-12.443 47.945-12.443 29.11 0 56.621 12.785 75.571 35.046 18.836 22.146 26.941 51.256 22.26 80.023l-40.639 248.858 172.032 176.37c26.027 26.712 34.817 65.183 23.059 100.571-11.872 35.388-42.123 60.845-78.995 66.438l-233.675 35.845-104.566 222.602c-8.333 17.808-21.575 32.534-38.356 42.694-15.411 9.361-33.105 14.269-51.256 14.269s-35.845-4.909-51.256-14.269z" />
<glyph unicode="&#xe95d;" glyph-name="star-filled" d="M460.769 945.726c-16.781-10.16-30.023-24.886-38.356-42.694l-104.566-222.602-233.675-35.731c-36.872-5.594-67.123-31.050-78.995-66.438s-2.968-73.858 23.059-100.571l172.032-176.37-40.639-248.858c-4.68-28.767 3.425-57.877 22.26-80.023 18.95-22.26 46.461-35.046 75.571-35.046 16.667 0 33.219 4.338 47.945 12.443l206.621 114.155 206.621-114.269c14.726-8.105 31.278-12.443 47.945-12.443 29.11 0 56.621 12.785 75.571 35.046 18.836 22.146 26.941 51.256 22.26 80.023l-40.639 248.858 172.032 176.37c26.027 26.712 34.817 65.183 23.059 100.571-11.872 35.388-42.123 60.845-78.995 66.438l-233.675 35.845-104.566 222.602c-8.333 17.808-21.575 32.534-38.356 42.694-15.411 9.361-33.105 14.269-51.256 14.269s-35.845-4.909-51.256-14.269z" />
<glyph unicode="&#xe95e;" glyph-name="stop" d="M256 768c-35.346 0-64-28.654-64-64v-512c0-35.346 28.654-64 64-64h512c35.346 0 64 28.654 64 64v512c0 35.346-28.654 64-64 64h-512zM256 832h512c70.692 0 128-57.308 128-128v-512c0-70.692-57.308-128-128-128h-512c-70.692 0-128 57.308-128 128v512c0 70.692 57.308 128 128 128z" />
<glyph unicode="&#xe95f;" glyph-name="stop-circled" d="M512-64c-282.77 0-512 229.23-512 512s229.23 512 512 512c282.77 0 512-229.23 512-512s-229.23-512-512-512zM512 0c247.424 0 448 200.576 448 448s-200.576 448-448 448c-247.424 0-448-200.576-448-448s200.576-448 448-448zM384 640h256c35.346 0 64-28.654 64-64v-256c0-35.346-28.654-64-64-64h-256c-35.346 0-64 28.654-64 64v256c0 35.346 28.654 64 64 64zM384 576v-256h256v256h-256z" />
<glyph unicode="&#xe960;" glyph-name="sun" d="M544 256c88.366 0 160 71.634 160 160s-71.634 160-160 160c-88.366 0-160-71.634-160-160s71.634-160 160-160zM544 192c-123.712 0-224 100.288-224 224s100.288 224 224 224c123.712 0 224-100.288 224-224s-100.288-224-224-224zM544 704c-17.673 0-32 14.327-32 32v128c0 17.673 14.327 32 32 32v0c17.673 0 32-14.327 32-32v-128c0-17.673-14.327-32-32-32zM544-64c-17.673 0-32 14.327-32 32v128c0 17.673 14.327 32 32 32v0c17.673 0 32-14.327 32-32v-128c0-17.673-14.327-32-32-32zM832 416c0 17.673 14.327 32 32 32h128c17.673 0 32-14.327 32-32v0c0-17.673-14.327-32-32-32h-128c-17.673 0-32 14.327-32 32zM64 416v0c0 17.673 14.327 32 32 32h128c17.673 0 32-14.327 32-32v0c0-17.673-14.327-32-32-32h-128c-17.673 0-32 14.327-32 32v0zM747.647 619.647c-12.497 12.497-12.497 32.758 0 45.255l90.51 90.51c12.497 12.497 32.758 12.497 45.255 0v0c12.497-12.497 12.497-32.758 0-45.255l-90.51-90.51c-12.497-12.497-32.758-12.497-45.255 0zM204.589 76.589v0c-12.497 12.497-12.497 32.758 0 45.255l90.51 90.51c12.497 12.497 32.758 12.497 45.255 0v0c12.497-12.497 12.497-32.758 0-45.255l-90.51-90.51c-12.497-12.497-32.758-12.497-45.255 0v0zM747.647 212.353c12.497 12.497 32.758 12.497 45.255 0l90.51-90.51c12.497-12.497 12.497-32.758 0-45.255v0c-12.497-12.497-32.758-12.497-45.255 0l-90.51 90.51c-12.497 12.497-12.497 32.758 0 45.255zM204.589 755.411c12.497 12.497 32.758 12.497 45.255 0l90.51-90.51c12.497-12.497 12.497-32.758 0-45.255v0c-12.497-12.497-32.758-12.497-45.255 0l-90.51 90.51c-12.497 12.497-12.497 32.758 0 45.255z" />
<glyph unicode="&#xe961;" glyph-name="swap-horiz" d="M917.961 320l-188.118-188.118c-12.497-12.497-12.497-32.758 0-45.255s32.758-12.497 45.255 0l226.274 226.274c3.484 3.484 5.997 7.572 7.538 11.927 9.060 5.651 15.089 15.707 15.089 27.172 0 17.673-14.327 32-32 32h-960c-17.673 0-32-14.327-32-32v0c0-17.673 14.327-32 32-32v0h885.961zM106.039 575.815l188.118 188.118c12.497 12.497 12.497 32.758 0 45.255v0 0c-12.497 12.497-32.758 12.497-45.255 0v0l-226.274-226.274c-3.484-3.484-5.997-7.572-7.538-11.927-9.060-5.651-15.089-15.707-15.089-27.172 0-17.673 14.327-32 32-32h960c17.673 0 32 14.327 32 32v0c0 17.673-14.327 32-32 32v0h-885.961z" />
<glyph unicode="&#xe962;" glyph-name="tag" d="M1.857 607.549v350.593h350.593c35.207 1.011 69.1-12.4 93.825-37.125l538.221-538.221c50.059-50.059 49.494-131.783-1.26-182.538l-223.496-223.496c-50.754-50.754-132.479-51.318-182.538-1.26l-538.221 538.221c-24.725 24.725-38.136 58.618-37.125 93.825zM64 640c0-32 0-64 32-96l512-512c25.613-25.613 70.511-25.489 96 0l224 224c25.489 25.489 25.613 70.387 0 96l-512 512c-32 32-32 32-64 32h-288v-256zM256 576c-70.692 0-128 57.308-128 128s57.308 128 128 128c70.692 0 128-57.308 128-128s-57.308-128-128-128zM256 640c35.346 0 64 28.654 64 64s-28.654 64-64 64c-35.346 0-64-28.654-64-64s28.654-64 64-64z" />
<glyph unicode="&#xe963;" glyph-name="thumbs-down" d="M64 384v448h128v-448h-128zM236.302 337.811c67.822-26.85 128.333-75.454 181.533-145.811 96.786-128 0-256 193.573-256 94.513 0 133.411 51.21 124.593 160-2.096 25.859-1.465 58.699-8.422 96.112s-13.128 49.489-19.384 63.888c14.476 0 183.628 11.772 223.36 23.274 60.17 17.419 98.895 75.825 91.516 138.030l-37.449 315.714c-14.773 124.548-117.604 220.053-242.902 225.597-20.879 0.924-43.142 1.386-66.789 1.386-146.695 0-293.897-26.665-441.605-79.994-11.281 9.954-26.098 15.994-42.326 15.994h-128c-35.346 0-64-28.654-64-64v-448c0-35.346 28.654-64 64-64h128c17.193 0 32.803 6.78 44.302 17.811zM256 819.788c140.876 50.87 280.761 76.212 419.932 76.212 22.731 0 44.054-0.442 63.959-1.323 93.974-4.158 171.097-75.787 182.177-169.198l37.449-315.713c3.689-31.103-15.673-60.306-45.759-69.016-46.126-13.353-117.945-20.75-205.564-20.75-46.084 0-77.063-47.236-58.699-89.503 14.823-34.118 18.663-59.342 21.294-115.561 0.516-11.025 0.869-17.304 1.42-24.107 6.019-74.256-6.809-90.829-60.802-90.829-65.513 0-66.057 0.564-76.385 57.932-15.041 83.548-26.678 120.482-66.139 172.669-60.933 80.584-131.976 137.13-212.884 168.223v420.964z" />
<glyph unicode="&#xe964;" glyph-name="thumbs-up" d="M64 512v-448h128v448h-128zM236.302 558.189c67.822 26.85 128.333 75.454 181.533 145.811 96.786 128 0 256 193.573 256 94.513 0 133.411-51.21 124.593-160-2.096-25.859-1.465-58.699-8.422-96.112s-13.128-49.489-19.384-63.888c14.476 0 183.628-11.772 223.36-23.274 60.17-17.419 98.895-75.825 91.516-138.030l-37.449-315.714c-14.773-124.548-117.604-220.053-242.902-225.597-20.879-0.924-43.142-1.386-66.789-1.386-146.695 0-293.897 26.665-441.605 79.994-11.281-9.954-26.098-15.994-42.326-15.994h-128c-35.346 0-64 28.654-64 64v448c0 35.346 28.654 64 64 64h128c17.193 0 32.803-6.78 44.302-17.811zM256 76.212c140.876-50.87 280.761-76.212 419.932-76.212 22.731 0 44.054 0.442 63.959 1.323 93.974 4.158 171.097 75.787 182.177 169.198l37.449 315.713c3.689 31.103-15.673 60.306-45.759 69.016-46.126 13.353-117.945 20.75-205.564 20.75-46.084 0-77.063 47.236-58.699 89.503 14.823 34.118 18.663 59.342 21.294 115.561 0.516 11.025 0.869 17.304 1.42 24.107 6.019 74.256-6.809 90.829-60.802 90.829-65.513 0-66.057-0.564-76.385-57.932-15.041-83.548-26.678-120.482-66.139-172.669-60.933-80.584-131.976-137.13-212.884-168.223v-420.964z" />
<glyph unicode="&#xe965;" glyph-name="trash" d="M224 832h96v64c0 35.346 28.654 64 64 64h256c35.346 0 64-28.654 64-64v-64h224c17.673 0 32-14.327 32-32s-14.327-32-32-32h-32v-704c0-70.692-57.308-128-128-128h-512c-70.692 0-128 57.308-128 128v704h-32c-17.673 0-32 14.327-32 32s14.327 32 32 32v0h128zM192 768v-704c0-35.346 28.654-64 64-64h512c35.346 0 64 28.654 64 64v704h-640zM384 896v-64h256v64h-256zM416 640c17.673 0 32-14.327 32-32v-448c0-17.673-14.327-32-32-32s-32 14.327-32 32v448c0 17.673 14.327 32 32 32zM608 640c17.673 0 32-14.327 32-32v-448c0-17.673-14.327-32-32-32s-32 14.327-32 32v448c0 17.673 14.327 32 32 32z" />
<glyph unicode="&#xe966;" glyph-name="upload" d="M128 192v-128c0-35.346 26.607-64 59.429-64h713.143c32.821 0 59.429 28.654 59.429 64v128h-832zM521.286 886.541c5.798 5.842 13.833 9.459 22.714 9.459 8.837 0 16.837-3.582 22.628-9.373l192-192-45.255-45.255-137.373 137.373v-498.745c0-17.673-14.327-32-32-32s-32 14.327-32 32v498.745l-137.372-137.372-45.255 45.255 191.913 191.913zM64 192h960v-128c0-70.692-53.726-128-120-128h-720c-66.274 0-120 57.308-120 128v128z" />
<glyph unicode="&#xe967;" glyph-name="user" d="M512 384c141.385 0 256 114.615 256 256s-114.615 256-256 256c-141.385 0-256-114.615-256-256s114.615-256 256-256zM512 320c-176.731 0-320 143.269-320 320s143.269 320 320 320c176.731 0 320-143.269 320-320s-143.269-320-320-320zM896-64c0 217.2-183.647 320-384 320s-384-102.8-384-320h-64c0 329.143 336 384 448 384s448-54.857 448-384h-64z" />
<glyph unicode="&#xe968;" glyph-name="zoom-in" d="M448 576h96c17.673 0 32-14.327 32-32s-14.327-32-32-32h-96v-96c0-17.673-14.327-32-32-32s-32 14.327-32 32v96h-96c-17.673 0-32 14.327-32 32s14.327 32 32 32h96v96c0 17.673 14.327 32 32 32s32-14.327 32-32v-96zM731.918 273.337l314.71-314.71-45.255-45.255-314.71 314.71c-72.753-62.39-167.306-100.082-270.663-100.082-229.75 0-416 186.25-416 416s186.25 416 416 416c229.75 0 416-186.25 416-416 0-103.357-37.693-197.91-100.082-270.663zM416 192c194.404 0 352 157.596 352 352s-157.596 352-352 352c-194.404 0-352-157.596-352-352s157.596-352 352-352z" />
<glyph unicode="&#xe969;" glyph-name="zoom-out" d="M731.918 273.337l314.71-314.71-45.255-45.255-314.71 314.71c-72.753-62.39-167.306-100.082-270.663-100.082-229.75 0-416 186.25-416 416s186.25 416 416 416c229.75 0 416-186.25 416-416 0-103.357-37.693-197.91-100.082-270.663zM416 192c194.404 0 352 157.596 352 352s-157.596 352-352 352c-194.404 0-352-157.596-352-352s157.596-352 352-352zM576 544c0-17.673-14.327-32-32-32h-256c-17.673 0-32 14.327-32 32s14.327 32 32 32h256c17.673 0 32-14.327 32-32z" />
</font>
</defs>
</svg>
